<?xml version="1.0" encoding="utf-8"?>
<!-- Generator: Adobe Illustrator 15.1.0, SVG Export Plug-In  -->
<!DOCTYPE svg PUBLIC "-//W3C//DTD SVG 1.1//EN" "http://www.w3.org/Graphics/SVG/1.1/DTD/svg11.dtd" [
	<!ENTITY ns_flows "http://ns.adobe.com/Flows/1.0/">
]>
<svg version="1.1"
	 xmlns="http://www.w3.org/2000/svg" xmlns:xlink="http://www.w3.org/1999/xlink" xmlns:a="http://ns.adobe.com/AdobeSVGViewerExtensions/3.0/"
	 x="0px" y="0px" width="400px" height="400px" viewBox="-6.825 -41.286 400 400" enable-background="new -6.825 -41.286 400 400"
	 xml:space="preserve">
<defs>
</defs>
<circle cx="192.077" cy="128.672" r="100"/>
<g>
	<g>
		<path fill="none" stroke="#000000" stroke-width="21" stroke-miterlimit="10" d="M95.407,46.638
			c-17.643,20.768-60.142,85.517,0.97,174.109"/>
		<g>
			<circle cx="95.08" cy="47.038" r="10.264"/>
		</g>
		<g>
			<circle cx="96.136" cy="220.303" r="10.264"/>
		</g>
	</g>
</g>
<g>
	<g>
		<path fill="none" stroke="#000000" stroke-width="21" stroke-miterlimit="10" d="M291.702,46.638
			c17.643,20.768,60.143,85.517-0.969,174.109"/>
		<g>
			<circle cx="292.03" cy="47.038" r="10.264"/>
		</g>
		<g>
			<circle cx="290.973" cy="220.303" r="10.264"/>
		</g>
	</g>
</g>
<g>
	<g>
		<path fill="none" stroke="#000000" stroke-width="25" stroke-miterlimit="10" d="M334.476,11.689
			c21.445,30.732,80.247,133.791-0.086,247.861"/>
		<g>
			<circle cx="334.792" cy="12.22" r="12.219"/>
		</g>
		<g>
			<circle cx="334.662" cy="259.01" r="12.219"/>
		</g>
	</g>
</g>
<g>
	<g>
		<path fill="none" stroke="#000000" stroke-width="25" stroke-miterlimit="10" d="M53.405,11.689
			C31.959,42.421-26.841,145.479,53.491,259.55"/>
		<g>
			<circle cx="53.089" cy="12.22" r="12.219"/>
		</g>
		<g>
			<circle cx="53.219" cy="259.01" r="12.219"/>
		</g>
	</g>
</g>
<path fill="#020202" d="M292.577,238.214H93.175c-6.627,0-12,5.373-12,12v49c0,6.627,5.373,12,12,12h199.402c6.627,0,12-5.373,12-12
	v-49C304.577,243.587,299.204,238.214,292.577,238.214z M157.742,299.714h-30.314v-48.532h11.017v39.315h19.297V299.714z
	 M175.235,299.714h-11.017v-48.532h11.017V299.714z M209.003,299.714h-12.816l-15.554-48.532h12.025l5.904,20.521
	c1.656,5.761,3.169,11.306,4.32,17.354h0.216c1.225-5.832,2.736-11.593,4.393-17.137l6.192-20.738h11.665L209.003,299.714z
	 M261.491,299.714h-30.963v-48.532h29.954v9.001h-18.938v10.081h17.857v8.929h-17.857v11.521h19.946V299.714z"/>
</svg>
